# xmcd CD database file
#
# Track frame offsets:
#	150
#	12357
#	32917
#	52362
#	75437
#	99235
#	111245
#	127040
#	148200
#	165942
#	176535
#	190772
#	209847
#	220980
#	230817
#	255022
#	268225
#
# Disc length: 3802 seconds
#
# Revision: 2
# Processed by: cddbd v1.4PL0 Copyright (c) Steve Scherf et al.
# Submitted via: CDex 1.40Release
#
DISCID=f90ed811
DTITLE=Junior Watson - Long Overdue
DYEAR=1994
DGENRE=Blues
TTITLE0=Certainly All
TTITLE1=Lonesome Train
TTITLE2=Biscuits
TTITLE3=Frankie and Johnny
TTITLE4=Mojo Boogie
TTITLE5=That's What You Are To Me
TTITLE6=The Woodpecker
TTITLE7=Want Me Some Love
TTITLE8=Big Boy
TTITLE9=Long Time Baby
TTITLE10=Special Lesson #1
TTITLE11=The Long Letters
TTITLE12=Cool Evening
TTITLE13=I Gotta Go (Back Home)
TTITLE14=Lump In My Throat
TTITLE15=The Train
TTITLE16=Don't Leave Me, Baby (The Easy Livin' Plan)
EXTD=YEAR: 1994 ID3G: 0
EXTT0=
EXTT1=
EXTT2=
EXTT3=
EXTT4=
EXTT5=
EXTT6=
EXTT7=
EXTT8=
EXTT9=
EXTT10=
EXTT11=
EXTT12=
EXTT13=
EXTT14=
EXTT15=
EXTT16=
PLAYORDER=
